<?xml version="1.0" encoding="utf-8"?>
<!-- Generator: Adobe Illustrator 18.0.0, SVG Export Plug-In . SVG Version: 6.00 Build 0)  -->
<svg version="1.2" baseProfile="tiny" id="Layer_1" xmlns="http://www.w3.org/2000/svg" xmlns:xlink="http://www.w3.org/1999/xlink"
	 x="0px" y="0px" viewBox="0 0 339.3 60" xml:space="preserve">
<g id="XMLID_40_">
	<g id="XMLID_102_">
		<path id="XMLID_110_" d="M118.2,51.5c-2,2.1-4.7,3-9.1,3H98.6V5.6h10.6c4.3,0,6.9,0.9,8.9,3c2.1,2.3,2.8,5.1,2.8,10
			c0,3.4-0.3,6.2-2.7,8.6c-0.8,0.8-1.8,1.5-2.8,1.9c1.2,0.3,2.2,1,3,1.9c2.5,2.7,2.8,6.2,2.8,9.5C121.3,46.1,120.4,49.2,118.2,51.5z
			 M108.7,10.8h-4.2v15.7h4.2c4.3,0,6.3-2.3,6.3-7.8C115,12.7,113,10.8,108.7,10.8z M108.8,31.6h-4.3v17.6h4.3
			c4.5,0,6.6-2.1,6.6-8.8C115.4,34.1,113.2,31.6,108.8,31.6z M129.1,54.4V5.6h5.9v43.6h13v5.3H129.1z M172.2,51.5
			c-1.9,2.1-4.5,3.5-8.4,3.5c-3.9,0-6.5-1.4-8.4-3.5c-3.4-3.7-3.6-9.3-3.6-21.5c0-12.2,0.2-17.8,3.6-21.5c1.9-2.1,4.5-3.5,8.4-3.5
			c3.9,0,6.6,1.4,8.4,3.5c3.4,3.7,3.5,9.3,3.5,21.5C175.7,42.2,175.5,47.8,172.2,51.5z M167.7,12.1c-0.8-1.1-2.1-1.9-4-1.9
			c-1.9,0-3.2,0.8-4,1.9c-1.7,2.3-2.1,6.2-2.1,17.9c0,11.6,0.3,15.5,2.1,17.9c0.8,1.1,2.1,1.9,4,1.9c1.9,0,3.2-0.8,4-1.9
			c1.7-2.3,2.1-6.3,2.1-17.9C169.8,18.4,169.4,14.5,167.7,12.1z M202.5,51.5c-1.9,2.1-4.5,3.5-8.5,3.5c-3.9,0-6.5-1.4-8.4-3.5
			c-3.4-3.7-3.6-9.3-3.6-21.5c0-12.2,0.2-17.8,3.6-21.5c1.8-2.1,4.5-3.5,8.4-3.5c3.9,0,6.6,1.4,8.5,3.5c3.4,3.7,3.5,9.3,3.5,21.5
			C206,42.2,205.9,47.8,202.5,51.5z M198.1,12.1c-0.8-1.1-2.1-1.9-4-1.9c-1.9,0-3.2,0.8-4,1.9c-1.7,2.3-2.1,6.2-2.1,17.9
			c0,11.6,0.3,15.5,2.1,17.9c0.8,1.1,2.1,1.9,4,1.9c1.9,0,3.2-0.8,4-1.9c1.7-2.3,2.1-6.3,2.1-17.9C200.1,18.4,199.8,14.5,198.1,12.1
			z M238.6,54.4V19.6l-7.8,22.9h-3.6l-7.6-22.3v34.3h-5.9V5.6h5.6l9.9,27.2l9.8-27.2h5.6v48.9H238.6z"/>
		<path id="XMLID_103_" d="M255.9,53.9V5h2.8v48.9H255.9z M284.2,51.6c-1.5,1.5-3.8,2.3-6.5,2.3h-9.2V5h9.2c2.7,0,4.9,0.8,6.5,2.3
			c2.9,3,3.4,5.4,3.4,22.1C287.6,46.1,287.1,48.6,284.2,51.6z M282.1,9.1c-1-1-2.6-1.6-4.6-1.6h-6.3v44h6.3c2,0,3.6-0.5,4.6-1.6
			c2.3-2.3,2.7-4.5,2.7-20.4C284.8,13.5,284.5,11.4,282.1,9.1z M296.5,53.9V5h15.8v2.5h-13.1v20.7h11.3v2.5h-11.3v20.7h13.1v2.5
			H296.5z M336.3,53.9l-3-14.7h-11.4L319,53.9h-3L326.5,5h2.5l10.3,48.9H336.3z M327.6,10.6l-5.2,26.1h10.4L327.6,10.6z"/>
	</g>
	<path id="XMLID_86_" d="M87.6,16.9l-14.1-16L72.7,0l-1.2,0.2L50.6,4.4l-1.2,0.2l-0.4,1.1l-4.9,14.5L39.3,5.8l-0.4-1.1l-1.2-0.2
		L16.9,0.2L15.7,0l-0.8,0.9l-14.1,16L0,17.9L0.5,19l6.8,16.7l0.2,0.5L8,36.6l8.6,6l2.1,11.5l0.4,1.1l1.2,0.2l14.1,4.3l1.2,0.2
		l0.8-0.9l7.9-10.6l7.9,10.6l0.8,0.9l1.2-0.2l14.1-4.3l1.2-0.2l0.4-1.1l1.4-11.5l9.3-6l0.5-0.3l0.2-0.5L87.9,19l0.5-1.2L87.6,16.9z
		 M9.4,35.1l33-7.9l-24.3,14L9.4,35.1z M43.2,46.6L35,57.4l8.1-27V46.6z M43.2,29.2l-8.6,28.5l-13.7-4.2l22.3-25.4V29.2z M43.2,27.5
		L20.6,53.2l-2.2-11.7l24.8-14.2V27.5z M43.2,26.7l-34,8.1L2.5,18.5L43.2,26.7L43.2,26.7z M43.2,26.2L2.5,18.1L16.3,2.4L43.2,26
		V26.2z M43.2,25.5L16.8,2.3l20.5,4.1l5.8,17.2V25.5z M45.2,23.6L51,6.4l20.5-4.1L45.2,25.5V23.6z M45.2,26L72.1,2.4l13.8,15.7
		l-40.7,8.1V26z M45.2,46.6V30.4l8.1,27L45.2,46.6z M53.9,57.7l-8.7-28.5v-1.1l22.3,25.4L53.9,57.7z M67.8,53.2L45.2,27.5v-0.2
		l24.1,14.2L67.8,53.2z M69.5,41.2L46,27.2l33,7.9L69.5,41.2z M79.3,34.8l-34-8.1v-0.1L86,18.5L79.3,34.8z"/>
</g>
</svg>
